<svg width="174" height="32" viewBox="0 0 174 32" fill="none" xmlns="http://www.w3.org/2000/svg">
<rect width="174" height="32" fill="white"/>
<path d="M33.4668 8L29.1709 12.6853C28.6861 13.2109 27.9409 13.5217 27.1471 13.5217H22.5482C22.2635 13.5217 22.0393 13.3296 22.0393 13.0922V11.6341C22.0393 11.2271 21.4212 11.0519 21.1243 11.3741L15.3742 17.6418C14.8895 18.1674 14.1442 18.4783 13.3505 18.4783H9L17.8524 8.83645C18.3371 8.31084 19.0824 8 19.8762 8H33.4668Z" fill="black"/>
<path d="M9.53926 24L13.8352 19.3147C14.3199 18.7891 15.0652 18.4783 15.8589 18.4783H20.4578C20.7426 18.4783 20.9668 18.6704 20.9668 18.9078V20.3659C20.9668 20.7729 21.5848 20.9481 21.8817 20.6259L27.6318 14.3582C28.1166 13.8326 28.8619 13.5217 29.6556 13.5217H34L25.1476 23.1635C24.6629 23.6892 23.9176 24 23.1238 24H9.53926Z" fill="black"/>
<g filter="url(#filter0_d_60_907)">
<path d="M44.2569 11.77C44.9762 11.77 45.5959 11.8913 46.1159 12.134C46.6446 12.368 47.0476 12.7103 47.3249 13.161C47.6109 13.603 47.7539 14.1273 47.7539 14.734C47.7539 15.3493 47.6109 15.8867 47.3249 16.346C47.0476 16.7967 46.6446 17.1433 46.1159 17.386C45.5959 17.62 44.9762 17.737 44.2569 17.737H42.4629V21H40.6429V11.77H44.2569ZM44.1659 16.177C44.7206 16.177 45.1452 16.0557 45.4399 15.813C45.7346 15.5703 45.8819 15.2107 45.8819 14.734C45.8819 14.2747 45.7346 13.928 45.4399 13.694C45.1452 13.4513 44.7206 13.33 44.1659 13.33H42.4629V16.177H44.1659ZM52.0115 21.156C51.3182 21.156 50.7072 21.0087 50.1785 20.714C49.6585 20.4193 49.2555 19.999 48.9695 19.453C48.6922 18.907 48.5535 18.2743 48.5535 17.555C48.5535 16.8357 48.6922 16.203 48.9695 15.657C49.2555 15.111 49.6585 14.6907 50.1785 14.396C50.7072 14.1013 51.3182 13.954 52.0115 13.954C52.7048 13.954 53.3115 14.1013 53.8315 14.396C54.3515 14.6907 54.7545 15.111 55.0405 15.657C55.3265 16.203 55.4695 16.8357 55.4695 17.555C55.4695 18.2743 55.3265 18.907 55.0405 19.453C54.7545 19.999 54.3515 20.4193 53.8315 20.714C53.3115 21.0087 52.7048 21.156 52.0115 21.156ZM52.0115 19.739C52.5228 19.739 52.9172 19.5483 53.1945 19.167C53.4805 18.7857 53.6235 18.2483 53.6235 17.555C53.6235 16.8617 53.4805 16.3243 53.1945 15.943C52.9172 15.5617 52.5228 15.371 52.0115 15.371C51.4915 15.371 51.0885 15.5617 50.8025 15.943C50.5252 16.3243 50.3865 16.8617 50.3865 17.555C50.3865 18.2483 50.5252 18.7857 50.8025 19.167C51.0885 19.5483 51.4915 19.739 52.0115 19.739ZM63.2303 18.933L64.5823 14.11H66.3113L64.2183 21H62.4243L61.0983 16.502L59.7723 21H57.9913L55.8853 14.11H57.6143L58.9663 18.933L60.3443 14.11H61.8523L63.2303 18.933ZM66.7713 17.555C66.7713 16.8357 66.9143 16.203 67.2003 15.657C67.4863 15.111 67.8893 14.6907 68.4093 14.396C68.9379 14.1013 69.5446 13.954 70.2293 13.954C70.8533 13.954 71.4123 14.097 71.9063 14.383C72.4003 14.6603 72.7903 15.0763 73.0763 15.631C73.3709 16.177 73.5226 16.8443 73.5313 17.633V18.036H68.6563C68.6823 18.582 68.8339 19.011 69.1113 19.323C69.3886 19.6263 69.7613 19.778 70.2293 19.778C70.5413 19.778 70.8186 19.7 71.0613 19.544C71.3126 19.3793 71.4946 19.154 71.6073 18.868L73.4403 18.998C73.2323 19.6567 72.8379 20.181 72.2573 20.571C71.6766 20.961 71.0006 21.156 70.2293 21.156C69.5446 21.156 68.9379 21.0087 68.4093 20.714C67.8893 20.4193 67.4863 19.999 67.2003 19.453C66.9143 18.907 66.7713 18.2743 66.7713 17.555ZM71.6983 16.892C71.6376 16.3547 71.4729 15.9603 71.2043 15.709C70.9443 15.4577 70.6193 15.332 70.2293 15.332C69.7959 15.332 69.4406 15.4707 69.1633 15.748C68.8946 16.0167 68.7299 16.398 68.6693 16.892H71.6983ZM76.583 14.11L76.635 16.086L76.505 16.008C76.6004 15.3667 76.7867 14.89 77.064 14.578C77.35 14.266 77.753 14.11 78.273 14.11H78.91V15.475H78.26C77.8874 15.475 77.584 15.5357 77.35 15.657C77.116 15.7783 76.947 15.9603 76.843 16.203C76.739 16.4457 76.687 16.749 76.687 17.113V21H74.893V14.11H76.583ZM79.4539 17.555C79.4539 16.8357 79.5969 16.203 79.8829 15.657C80.1689 15.111 80.5719 14.6907 81.0919 14.396C81.6206 14.1013 82.2272 13.954 82.9119 13.954C83.5359 13.954 84.0949 14.097 84.5889 14.383C85.0829 14.6603 85.4729 15.0763 85.7589 15.631C86.0536 16.177 86.2052 16.8443 86.2139 17.633V18.036H81.3389C81.3649 18.582 81.5166 19.011 81.7939 19.323C82.0712 19.6263 82.4439 19.778 82.9119 19.778C83.2239 19.778 83.5012 19.7 83.7439 19.544C83.9952 19.3793 84.1772 19.154 84.2899 18.868L86.1229 18.998C85.9149 19.6567 85.5206 20.181 84.9399 20.571C84.3592 20.961 83.6832 21.156 82.9119 21.156C82.2272 21.156 81.6206 21.0087 81.0919 20.714C80.5719 20.4193 80.1689 19.999 79.8829 19.453C79.5969 18.907 79.4539 18.2743 79.4539 17.555ZM84.3809 16.892C84.3202 16.3547 84.1556 15.9603 83.8869 15.709C83.6269 15.4577 83.3019 15.332 82.9119 15.332C82.4786 15.332 82.1232 15.4707 81.8459 15.748C81.5772 16.0167 81.4126 16.398 81.3519 16.892H84.3809ZM92.2399 11.77H94.0339V21H92.3309L92.2919 20.025C92.1012 20.389 91.8239 20.6707 91.4599 20.87C91.1046 21.0607 90.6799 21.156 90.1859 21.156C89.5706 21.156 89.0419 21 88.5999 20.688C88.1579 20.3673 87.8242 19.934 87.5989 19.388C87.3822 18.842 87.2739 18.231 87.2739 17.555C87.2739 16.879 87.3822 16.268 87.5989 15.722C87.8242 15.176 88.1579 14.747 88.5999 14.435C89.0419 14.1143 89.5706 13.954 90.1859 13.954C90.6626 13.954 91.0742 14.0493 91.4209 14.24C91.7676 14.422 92.0406 14.6907 92.2399 15.046V11.77ZM92.1749 18.647C92.2962 18.3177 92.3569 17.9537 92.3569 17.555C92.3569 17.139 92.2962 16.7663 92.1749 16.437C92.0622 16.099 91.8846 15.8303 91.6419 15.631C91.3992 15.4317 91.0959 15.332 90.7319 15.332C90.2032 15.332 89.8002 15.5443 89.5229 15.969C89.2542 16.385 89.1199 16.9137 89.1199 17.555C89.1199 18.1703 89.2542 18.6903 89.5229 19.115C89.8002 19.531 90.2032 19.739 90.7319 19.739C91.0959 19.739 91.3992 19.6393 91.6419 19.44C91.8846 19.2407 92.0622 18.9763 92.1749 18.647ZM100.732 11.77V15.046C100.931 14.6907 101.204 14.422 101.551 14.24C101.898 14.0493 102.309 13.954 102.786 13.954C103.401 13.954 103.93 14.1143 104.372 14.435C104.814 14.747 105.143 15.176 105.36 15.722C105.585 16.268 105.698 16.879 105.698 17.555C105.698 18.231 105.585 18.842 105.36 19.388C105.143 19.934 104.814 20.3673 104.372 20.688C103.93 21 103.401 21.156 102.786 21.156C102.292 21.156 101.863 21.0607 101.499 20.87C101.144 20.6707 100.871 20.389 100.68 20.025L100.641 21H98.938V11.77H100.732ZM100.615 17.555C100.615 17.9537 100.671 18.3177 100.784 18.647C100.905 18.9763 101.087 19.2407 101.33 19.44C101.573 19.6393 101.876 19.739 102.24 19.739C102.769 19.739 103.167 19.531 103.436 19.115C103.713 18.6903 103.852 18.1703 103.852 17.555C103.852 16.9137 103.713 16.385 103.436 15.969C103.167 15.5443 102.769 15.332 102.24 15.332C101.876 15.332 101.573 15.4317 101.33 15.631C101.087 15.8303 100.905 16.099 100.784 16.437C100.671 16.7663 100.615 17.139 100.615 17.555ZM107.837 14.11L109.618 19.128L111.347 14.11H113.063L110.346 21.702C110.19 22.1353 109.96 22.4517 109.657 22.651C109.362 22.8503 108.981 22.95 108.513 22.95H107.369V21.611H108.188C108.387 21.611 108.543 21.572 108.656 21.494C108.769 21.4247 108.86 21.312 108.929 21.156L109.111 20.688H108.604L106.108 14.11H107.837ZM118.894 17.88C118.963 18.2353 119.089 18.543 119.271 18.803C119.453 19.0543 119.691 19.2493 119.986 19.388C120.289 19.5267 120.64 19.596 121.039 19.596C121.359 19.596 121.637 19.557 121.871 19.479C122.105 19.3923 122.282 19.271 122.404 19.115C122.534 18.9503 122.599 18.751 122.599 18.517C122.59 18.1617 122.421 17.867 122.092 17.633C121.762 17.399 121.212 17.1867 120.441 16.996C119.427 16.7533 118.638 16.4153 118.075 15.982C117.52 15.54 117.243 14.9637 117.243 14.253C117.243 13.707 117.386 13.2347 117.672 12.836C117.958 12.4287 118.356 12.1167 118.868 11.9C119.379 11.6747 119.973 11.562 120.649 11.562C121.325 11.562 121.923 11.692 122.443 11.952C122.971 12.212 123.392 12.576 123.704 13.044C124.024 13.5033 124.224 14.0407 124.302 14.656L122.469 14.734C122.434 14.4047 122.334 14.1187 122.17 13.876C122.005 13.6247 121.788 13.434 121.52 13.304C121.251 13.174 120.948 13.109 120.61 13.109C120.159 13.109 119.791 13.2173 119.505 13.434C119.227 13.642 119.093 13.9237 119.102 14.279C119.11 14.5303 119.201 14.7383 119.375 14.903C119.548 15.0677 119.756 15.1977 119.999 15.293C120.25 15.3883 120.575 15.4923 120.974 15.605L121.156 15.644C122.196 15.8867 123.002 16.2377 123.574 16.697C124.154 17.1563 124.445 17.737 124.445 18.439C124.445 19.0023 124.293 19.492 123.99 19.908C123.686 20.3153 123.27 20.6273 122.742 20.844C122.213 21.052 121.624 21.156 120.974 21.156C120.246 21.156 119.591 21.026 119.011 20.766C118.439 20.506 117.984 20.1377 117.646 19.661C117.308 19.1757 117.117 18.6167 117.074 17.984L118.894 17.88ZM127.646 11.77V15.696L127.373 15.787C127.494 15.1457 127.754 14.682 128.153 14.396C128.552 14.1013 129.041 13.954 129.622 13.954C130.35 13.954 130.918 14.1967 131.325 14.682C131.732 15.1587 131.936 15.787 131.936 16.567V21H130.142V17.191C130.142 16.7923 130.107 16.4673 130.038 16.216C129.969 15.9647 129.852 15.774 129.687 15.644C129.522 15.514 129.297 15.449 129.011 15.449C128.569 15.449 128.231 15.5963 127.997 15.891C127.763 16.1857 127.646 16.619 127.646 17.191V21H125.852V11.77H127.646ZM133.155 17.555C133.155 16.8357 133.298 16.203 133.584 15.657C133.87 15.111 134.273 14.6907 134.793 14.396C135.322 14.1013 135.928 13.954 136.613 13.954C137.237 13.954 137.796 14.097 138.29 14.383C138.784 14.6603 139.174 15.0763 139.46 15.631C139.755 16.177 139.906 16.8443 139.915 17.633V18.036H135.04C135.066 18.582 135.218 19.011 135.495 19.323C135.772 19.6263 136.145 19.778 136.613 19.778C136.925 19.778 137.202 19.7 137.445 19.544C137.696 19.3793 137.878 19.154 137.991 18.868L139.824 18.998C139.616 19.6567 139.222 20.181 138.641 20.571C138.06 20.961 137.384 21.156 136.613 21.156C135.928 21.156 135.322 21.0087 134.793 20.714C134.273 20.4193 133.87 19.999 133.584 19.453C133.298 18.907 133.155 18.2743 133.155 17.555ZM138.082 16.892C138.021 16.3547 137.857 15.9603 137.588 15.709C137.328 15.4577 137.003 15.332 136.613 15.332C136.18 15.332 135.824 15.4707 135.547 15.748C135.278 16.0167 135.114 16.398 135.053 16.892H138.082ZM143.289 11.77V19.115C143.289 19.2797 143.332 19.4097 143.419 19.505C143.514 19.5917 143.64 19.635 143.796 19.635H144.316V21H143.302C142.756 21 142.318 20.8397 141.989 20.519C141.668 20.1983 141.508 19.7563 141.508 19.193V11.77H143.289ZM149.072 21H147.148L144.6 14.11H146.368L148.11 19.193L149.852 14.11H151.607L149.072 21ZM152.071 17.555C152.071 16.8357 152.214 16.203 152.5 15.657C152.786 15.111 153.189 14.6907 153.709 14.396C154.238 14.1013 154.844 13.954 155.529 13.954C156.153 13.954 156.712 14.097 157.206 14.383C157.7 14.6603 158.09 15.0763 158.376 15.631C158.671 16.177 158.822 16.8443 158.831 17.633V18.036H153.956C153.982 18.582 154.134 19.011 154.411 19.323C154.688 19.6263 155.061 19.778 155.529 19.778C155.841 19.778 156.118 19.7 156.361 19.544C156.612 19.3793 156.794 19.154 156.907 18.868L158.74 18.998C158.532 19.6567 158.138 20.181 157.557 20.571C156.976 20.961 156.3 21.156 155.529 21.156C154.844 21.156 154.238 21.0087 153.709 20.714C153.189 20.4193 152.786 19.999 152.5 19.453C152.214 18.907 152.071 18.2743 152.071 17.555ZM156.998 16.892C156.937 16.3547 156.773 15.9603 156.504 15.709C156.244 15.4577 155.919 15.332 155.529 15.332C155.096 15.332 154.74 15.4707 154.463 15.748C154.194 16.0167 154.03 16.398 153.969 16.892H156.998Z" fill="black"/>
</g>
<defs>
<filter id="filter0_d_60_907" x="34.1426" y="6.06201" width="131.188" height="24.3882" filterUnits="userSpaceOnUse" color-interpolation-filters="sRGB">
<feFlood flood-opacity="0" result="BackgroundImageFix"/>
<feColorMatrix in="SourceAlpha" type="matrix" values="0 0 0 0 0 0 0 0 0 0 0 0 0 0 0 0 0 0 127 0" result="hardAlpha"/>
<feOffset dy="1"/>
<feGaussianBlur stdDeviation="3.25"/>
<feComposite in2="hardAlpha" operator="out"/>
<feColorMatrix type="matrix" values="0 0 0 0 0 0 0 0 0 0 0 0 0 0 0 0 0 0 0.16 0"/>
<feBlend mode="normal" in2="BackgroundImageFix" result="effect1_dropShadow_60_907"/>
<feBlend mode="normal" in="SourceGraphic" in2="effect1_dropShadow_60_907" result="shape"/>
</filter>
</defs>
</svg>
