<svg xmlns="http://www.w3.org/2000/svg" width="48" height="48" viewBox="0 0 48 48">
  <g class="nc-icon-wrapper" fill="currentColor">
    <path
      d="M33.535,22.5l-2.75-.2A6.942,6.942,0,0,0,30,20.4L31.8,18.317a.5.5,0,0,0-.025-.681l-1.414-1.414a.5.5,0,0,0-.68-.025L27.6,18a6.968,6.968,0,0,0-1.9-.789l-.2-2.751A.5.5,0,0,0,25,14H23a.5.5,0,0,0-.5.464l-.2,2.751A6.968,6.968,0,0,0,20.4,18L18.316,16.2a.5.5,0,0,0-.68.025l-1.414,1.414a.5.5,0,0,0-.025.681L18,20.4a6.942,6.942,0,0,0-.789,1.9l-2.75.2A.5.5,0,0,0,14,23v2a.5.5,0,0,0,.465.5l2.75.2A6.962,6.962,0,0,0,18,27.6L16.2,29.684a.5.5,0,0,0,.025.68l1.414,1.414a.5.5,0,0,0,.68.025L20.4,30a6.962,6.962,0,0,0,1.9.789l.2,2.75A.5.5,0,0,0,23,34h2a.5.5,0,0,0,.5-.465l.2-2.75A6.962,6.962,0,0,0,27.6,30L29.684,31.8a.5.5,0,0,0,.68-.025l1.414-1.414a.5.5,0,0,0,.025-.68L30,27.6a6.962,6.962,0,0,0,.789-1.9l2.75-.2A.5.5,0,0,0,34,25V23A.5.5,0,0,0,33.535,22.5ZM24,27a3,3,0,1,1,3-3A3,3,0,0,1,24,27Z"
      fill="currentColor" data-color="color-2"></path>
    <path d="M45,5a4,4,0,1,0-5,3.858v4.728l-3.707,3.707a1,1,0,1,0,1.414,1.414l4-4A1,1,0,0,0,42,14V8.858A4,4,0,0,0,45,5Z"
          fill="currentColor"></path>
    <path d="M11.707,17.293,8,13.586V8.858a4,4,0,1,0-2,0V14a1,1,0,0,0,.293.707l4,4a1,1,0,0,0,1.414-1.414Z"
          fill="currentColor"></path>
    <path d="M27,1H21a1,1,0,0,0-1,1V8a1,1,0,0,0,1,1h2v2a1,1,0,0,0,2,0V9h2a1,1,0,0,0,1-1V2A1,1,0,0,0,27,1Z"
          fill="currentColor"></path>
    <path
      d="M44,39H42V34a1,1,0,0,0-.293-.707l-4-4a1,1,0,0,0-1.414,1.414L40,34.414V39H38a1,1,0,0,0-1,1v6a1,1,0,0,0,1,1h6a1,1,0,0,0,1-1V40A1,1,0,0,0,44,39Z"
      fill="currentColor"></path>
    <path
      d="M11.707,30.707a1,1,0,0,0-1.414-1.414l-4,4A1,1,0,0,0,6,34v5H4a1,1,0,0,0-1,1v6a1,1,0,0,0,1,1h6a1,1,0,0,0,1-1V40a1,1,0,0,0-1-1H8V34.414Z"
      fill="currentColor"></path>
    <path d="M25,39.142V37a1,1,0,0,0-2,0v2.142a4,4,0,1,0,2,0Z" fill="currentColor"></path>
  </g>
</svg>
