<svg xmlns="http://www.w3.org/2000/svg" width="20" height="20" viewBox="0 0 20 20">
    <g class="nc-icon-wrapper" fill="currentColor">
        <circle cx="6.5" cy="8" r="2" stroke="currentColor" stroke-linecap="round" stroke-linejoin="round" stroke-width="2"
                fill="currentColor"></circle>
        <circle cx="13.5" cy="5" r="2" fill="currentColor" stroke="currentColor" stroke-linecap="round" stroke-linejoin="round"
                stroke-width="2" data-color="color-2"></circle>
        <path d="m18.16,12.226c-.744-1.96-2.573-3.226-4.66-3.226-1.509,0-2.876.669-3.803,1.776,1.498.77,2.699,2.071,3.332,3.74.058.153.092.309.127.465.115.005.229.02.344.02,1.297,0,2.594-.299,3.881-.898.711-.331,1.053-1.155.778-1.876Z"
              fill="currentColor" stroke-width="0" data-color="color-2"></path>
        <path d="m11.16,15.226c-.744-1.96-2.573-3.226-4.66-3.226s-3.916,1.266-4.66,3.226c-.275.722.067,1.546.778,1.877,1.288.599,2.584.898,3.881.898s2.594-.299,3.881-.898c.711-.331,1.053-1.155.778-1.876Z"
              stroke-width="0" fill="currentColor"></path>
    </g>
</svg>
