<svg width="2260" height="488" viewBox="0 0 2260 488" fill="none" xmlns="http://www.w3.org/2000/svg">
<path d="M700.867 0L577.808 142.717C563.922 158.728 542.573 168.197 519.836 168.197H388.098C379.94 168.197 373.518 162.343 373.518 155.113V110.696C373.518 98.3011 355.814 92.9643 347.309 102.777L182.593 293.698C168.708 309.709 147.359 319.177 124.622 319.177H0L253.583 25.4791C267.468 9.46859 288.817 0 311.554 0H700.867Z" fill="white"/>
<path d="M15.4475 487.374L138.507 344.657C152.393 328.646 173.742 319.177 196.479 319.177H328.217C336.375 319.177 342.797 325.031 342.797 332.261V376.678C342.797 389.073 360.501 394.41 369.005 384.597L533.721 193.676C547.607 177.665 568.956 168.197 591.693 168.197H716.141L462.559 461.895C448.673 477.905 427.324 487.374 404.587 487.374H15.4475Z" fill="white"/>
<path d="M859.393 301.528C862.222 315.675 867.251 328.092 874.481 338.78C882.025 349.469 891.926 357.642 904.185 363.301C916.444 368.959 930.589 371.789 946.62 371.789C960.136 371.789 971.766 370.06 981.51 366.602C991.569 363.144 999.27 357.957 1004.61 351.041C1009.96 344.125 1012.63 335.794 1012.63 326.049C1012.63 310.645 1005.56 297.913 991.412 287.854C977.581 277.48 954.792 268.363 923.045 260.504C890.04 252.331 863.636 240.542 843.834 225.138C824.345 209.734 814.601 189.301 814.601 163.837C814.601 144.976 819.473 128.472 829.217 114.325C838.962 100.179 852.321 89.3333 869.294 81.7886C886.583 73.9295 906.543 70 929.174 70C953.063 70 974.281 74.7154 992.826 84.1463C1011.37 93.2629 1026.15 105.995 1037.15 122.341C1048.15 138.374 1055.06 157.079 1057.89 178.455L1006.5 181.285C1004.61 168.081 1000.21 156.607 993.298 146.862C986.382 136.802 977.267 129.1 965.951 123.756C954.949 118.412 942.376 115.74 928.231 115.74C910 115.74 895.07 120.141 883.439 128.943C871.809 137.745 866.151 149.534 866.465 164.309C866.465 175.312 870.08 184.428 877.31 191.659C884.854 198.575 893.655 204.076 903.714 208.163C913.772 211.935 927.288 216.179 944.262 220.894L951.335 222.78C986.225 231.897 1013.73 244.629 1033.85 260.976C1054.28 277.008 1064.49 297.442 1064.49 322.276C1064.49 342.396 1058.99 359.686 1047.99 374.146C1036.99 388.607 1022.22 399.61 1003.67 407.154C985.44 414.385 965.48 418 943.791 418C918.959 418 896.484 413.442 876.367 404.325C856.564 394.894 840.69 381.534 828.746 364.244C816.801 346.954 809.886 326.992 808 304.358L859.393 301.528Z" fill="white"/>
<path d="M1169.01 77.5447V218.065L1161.94 214.764C1166.97 195.274 1176.71 180.813 1191.17 171.382C1205.63 161.637 1222.76 156.764 1242.56 156.764C1269.6 156.764 1290.34 165.566 1304.8 183.171C1319.26 200.775 1326.49 223.566 1326.49 251.545V412.341H1277.45V268.52C1277.45 253.431 1275.88 241.014 1272.74 231.268C1269.6 221.209 1264.41 213.664 1257.18 208.634C1250.27 203.29 1240.99 200.618 1229.36 200.618C1210.5 200.618 1195.73 206.434 1185.04 218.065C1174.35 229.696 1169.01 246.515 1169.01 268.52V412.341H1119.98V77.5447H1169.01Z" fill="white"/>
<path d="M1376.52 287.382C1376.52 260.976 1381.39 238.027 1391.13 218.537C1400.88 198.732 1414.71 183.485 1432.62 172.797C1450.54 162.108 1471.29 156.764 1494.86 156.764C1515.29 156.764 1533.68 161.322 1550.03 170.439C1566.69 179.556 1580.05 193.702 1590.1 212.878C1600.48 232.054 1606.14 255.946 1607.08 284.553L1607.55 301.528H1427.91C1429.8 325.106 1436.55 343.339 1448.18 356.228C1459.81 369.117 1475.37 375.561 1494.86 375.561C1507.44 375.561 1518.91 372.26 1529.28 365.659C1539.65 358.743 1547.36 349.312 1552.38 337.366L1603.78 341.138C1596.55 364.401 1582.87 383.106 1562.76 397.252C1542.95 411.084 1520.32 418 1494.86 418C1471.29 418 1450.54 412.656 1432.62 401.967C1414.71 391.279 1400.88 376.19 1391.13 356.699C1381.39 336.894 1376.52 313.789 1376.52 287.382ZM1555.69 263.805C1552.54 241.485 1545.47 225.138 1534.47 214.764C1523.47 204.39 1510.26 199.203 1494.86 199.203C1476.63 199.203 1461.86 204.862 1450.54 216.179C1439.23 227.496 1432 243.371 1428.85 263.805H1555.69Z" fill="white"/>
<path d="M1717.92 77.5447V355.285C1717.92 360.629 1719.17 364.715 1721.69 367.545C1724.52 370.374 1728.6 371.789 1733.95 371.789H1754.69V412.341H1723.57C1707.23 412.341 1694.03 407.312 1683.97 397.252C1673.91 387.192 1668.88 373.989 1668.88 357.642V77.5447H1717.92Z" fill="white"/>
<path d="M1918.46 412.341H1861.41L1769.94 162.423H1820.39L1890.17 361.886L1959.48 162.423H2009.93L1918.46 412.341Z" fill="white"/>
<path d="M2028.97 287.382C2028.97 260.976 2033.84 238.027 2043.58 218.537C2053.33 198.732 2067.16 183.485 2085.08 172.797C2102.99 162.108 2123.74 156.764 2147.31 156.764C2167.74 156.764 2186.13 161.322 2202.48 170.439C2219.14 179.556 2232.5 193.702 2242.55 212.878C2252.93 232.054 2258.59 255.946 2259.53 284.553L2260 301.528H2080.36C2082.25 325.106 2089 343.339 2100.63 356.228C2112.26 369.117 2127.82 375.561 2147.31 375.561C2159.89 375.561 2171.36 372.26 2181.73 365.659C2192.1 358.743 2199.81 349.312 2204.84 337.366L2256.23 341.138C2249 364.401 2235.33 383.106 2215.21 397.252C2195.41 411.084 2172.77 418 2147.31 418C2123.74 418 2102.99 412.656 2085.08 401.967C2067.16 391.279 2053.33 376.19 2043.58 356.699C2033.84 336.894 2028.97 313.789 2028.97 287.382ZM2208.14 263.805C2204.99 241.485 2197.92 225.138 2186.92 214.764C2175.92 204.39 2162.71 199.203 2147.31 199.203C2129.08 199.203 2114.31 204.862 2102.99 216.179C2091.68 227.496 2084.45 243.371 2081.3 263.805H2208.14Z" fill="white"/>
</svg>
